<svg xmlns="http://www.w3.org/2000/svg" width="500" height="500" viewBox="0 0 500 500">
<g>
<path d="M 121.00 213.05 L 121.00 253.00 L 107.00 253.00 L 107.00 206.96 L 104.50 205.82 L 102.00 204.68 L 102.00 97.00 L 157.75 97.01 C217.68,97.02 240.53,97.93 258.61,101.02 C297.07,107.59 314.00,123.59 314.00,153.34 C314.00,171.10 305.87,185.56 291.00,194.26 C280.95,200.15 252.92,206.92 243.73,205.69 C241.47,205.39 238.90,205.52 238.02,205.99 C237.15,206.45 233.19,207.16 229.22,207.55 L 222.00 208.26 L 222.00 197.16 C222.00,187.22 221.80,185.96 220.07,185.04 C217.44,183.63 216.41,183.73 214.57,185.57 C213.34,186.80 213.00,189.42 213.00,197.57 L 213.00 208.00 L 199.00 208.00 L 199.00 194.20 C199.00,179.60 198.54,178.00 194.34,178.00 C190.76,178.00 190.00,180.96 190.00,194.93 L 190.00 208.00 L 176.00 208.00 L 176.00 170.00 L 191.25 169.96 C211.36,169.92 231.28,168.46 237.54,166.57 C240.31,165.73 243.80,163.78 245.28,162.23 C250.53,156.75 249.64,145.43 243.65,141.50 C237.40,137.41 231.66,136.74 198.75,136.27 L 167.00 135.81 L 167.00 253.00 L 153.00 253.00 L 153.00 227.54 C153.00,203.97 152.86,202.00 151.19,201.10 C149.96,200.44 148.59,200.52 146.94,201.34 L 144.50 202.56 L 144.23 227.78 L 143.97 253.00 L 130.00 253.00 L 130.00 232.54 C130.00,212.87 129.92,212.03 127.93,210.96 C126.33,210.10 125.33,210.21 123.43,211.45 ZM 260.00 340.83 L 260.00 386.00 L 195.00 386.00 L 195.00 354.04 C195.00,323.15 195.07,322.03 196.99,321.01 C198.92,319.97 198.99,318.70 199.24,275.22 L 199.50 230.50 L 206.25 230.20 L 213.00 229.91 L 213.00 271.25 C213.00,302.08 213.31,312.91 214.20,313.80 C215.94,315.54 220.68,315.29 221.39,313.42 C221.73,312.55 222.00,293.42 222.00,270.92 L 222.00 230.00 L 236.00 230.00 L 236.00 260.94 C236.00,291.71 236.01,291.90 238.20,293.43 C240.08,294.75 240.71,294.77 242.45,293.62 C244.43,292.30 244.51,291.23 244.76,261.13 L 245.03 230.00 L 259.00 230.00 L 259.00 244.75 C259.00,252.86 259.30,269.29 259.66,281.25 L 260.32 303.00 L 279.91 302.98 C298.58,302.96 322.34,301.66 326.12,300.46 C327.64,299.98 327.94,300.65 328.20,305.08 C328.42,308.98 329.01,310.60 330.55,311.62 C332.29,312.77 332.92,312.74 334.80,311.43 C336.68,310.11 337.00,308.95 337.00,303.40 C337.00,298.25 337.46,296.29 339.25,293.87 C342.37,289.64 342.35,281.06 339.20,277.71 C337.07,275.45 337.00,274.65 337.00,253.59 L 337.00 231.81 L 342.25 232.48 C345.14,232.84 348.29,233.37 349.25,233.64 C350.88,234.10 351.00,237.17 351.00,279.87 L 351.00 279.88 C351.00,319.78 351.00,326.60 353.57,327.76 C354.09,328.00 354.73,328.00 355.50,328.00 L 355.50 328.00 C360.00,328.00 360.00,327.96 360.00,280.69 L 360.00 235.78 L 363.75 236.48 C365.81,236.87 368.96,237.79 370.75,238.54 L 374.00 239.90 L 374.00 277.88 C374.00,311.07 374.20,316.06 375.57,317.43 C376.44,318.29 377.75,319.00 378.50,319.00 C379.25,319.00 380.56,318.29 381.43,317.43 C382.80,316.06 383.00,311.26 383.00,279.93 C383.00,260.17 383.27,244.00 383.60,244.00 C384.59,244.00 390.31,248.14 393.75,251.35 L 397.00 254.39 L 397.00 278.14 C397.00,301.18 397.06,301.93 399.11,303.37 C400.28,304.18 401.85,304.61 402.61,304.32 C404.51,303.59 404.38,304.32 401.57,309.86 C398.55,315.82 388.74,325.03 382.09,328.15 C379.34,329.44 377.07,330.73 377.04,331.00 C377.02,331.27 379.93,333.01 383.51,334.86 C387.08,336.71 391.20,339.64 392.67,341.36 C396.44,345.82 399.68,353.45 401.01,361.00 C402.26,368.07 405.44,381.45 406.53,384.25 C407.17,385.89 405.33,386.00 376.13,386.00 L 345.04 386.00 L 343.14 382.25 C342.10,380.19 340.33,374.88 339.22,370.45 C336.42,359.29 333.52,353.63 328.23,348.97 C320.72,342.36 317.22,341.71 286.75,341.24 ZM 328.00 231.31 L 328.00 271.00 L 325.75 270.87 C324.51,270.79 321.25,270.38 318.50,269.95 C315.75,269.53 307.44,269.14 300.03,269.09 C287.54,269.01 286.72,268.89 288.78,267.44 C290.91,265.95 291.00,265.27 291.00,250.53 C291.00,242.08 290.73,234.45 290.39,233.58 C289.68,231.71 284.94,231.46 283.20,233.20 C282.37,234.03 282.00,239.23 282.00,250.14 C282.00,265.28 282.09,265.95 284.22,267.44 C286.30,268.90 285.85,269.00 277.22,269.00 L 268.00 269.00 L 268.00 230.00 L 286.75 230.00 C297.06,230.01 310.56,230.30 316.75,230.66 ZM 306.20 266.80 C306.86,267.46 308.35,268.00 309.50,268.00 C313.59,268.00 314.00,266.37 314.00,250.00 C314.00,239.20 313.63,234.03 312.80,233.20 C311.26,231.66 307.74,231.66 306.20,233.20 C304.52,234.88 304.52,265.12 306.20,266.80 Z" fill="rgb(3,3,3)"/>
<path d="M 0.00 250.00 L 0.00 0.00 L 250.00 0.00 L 500.00 0.00 L 500.00 250.00 L 500.00 500.00 L 250.00 500.00 L 0.00 500.00 L 0.00 250.00 ZM 260.00 363.42 L 260.00 340.83 L 286.75 341.24 C317.22,341.71 320.72,342.36 328.23,348.97 C333.52,353.63 336.42,359.29 339.22,370.45 C340.33,374.88 342.10,380.19 343.14,382.25 L 345.04 386.00 L 376.13 386.00 C405.33,386.00 407.17,385.89 406.53,384.25 C405.44,381.45 402.26,368.07 401.01,361.00 C399.68,353.45 396.44,345.82 392.67,341.36 C391.20,339.64 387.08,336.71 383.51,334.86 C379.93,333.01 377.02,331.27 377.04,331.00 C377.07,330.73 379.34,329.44 382.09,328.15 C388.74,325.03 398.55,315.82 401.57,309.86 C404.38,304.32 404.51,303.59 402.61,304.32 C401.85,304.61 400.28,304.18 399.11,303.37 C397.06,301.93 397.00,301.18 397.00,278.14 L 397.00 254.39 L 393.75 251.35 C390.31,248.14 384.59,244.00 383.60,244.00 C383.27,244.00 383.00,260.17 383.00,279.93 C383.00,311.26 382.80,316.06 381.43,317.43 C380.56,318.29 379.25,319.00 378.50,319.00 C377.75,319.00 376.44,318.29 375.57,317.43 C374.20,316.06 374.00,311.07 374.00,277.88 L 374.00 239.90 L 370.75 238.54 C368.96,237.79 365.81,236.87 363.75,236.48 L 360.00 235.78 L 360.00 280.69 C360.00,327.96 360.00,328.00 355.50,328.00 C351.00,328.00 351.00,328.00 351.00,279.87 C351.00,237.17 350.88,234.10 349.25,233.64 C348.29,233.37 345.14,232.84 342.25,232.48 L 337.00 231.81 L 337.00 253.59 C337.00,274.65 337.07,275.45 339.20,277.71 C342.35,281.06 342.37,289.64 339.25,293.87 C337.46,296.29 337.00,298.25 337.00,303.40 C337.00,308.95 336.68,310.11 334.80,311.43 C332.92,312.74 332.29,312.77 330.55,311.62 C329.01,310.60 328.42,308.98 328.20,305.08 C327.94,300.65 327.64,299.98 326.12,300.46 C322.34,301.66 298.58,302.96 279.91,302.98 L 260.32 303.00 L 259.66 281.25 C259.30,269.29 259.00,252.86 259.00,244.75 L 259.00 230.00 L 252.01 230.00 L 245.03 230.00 L 244.76 261.13 C244.51,291.23 244.43,292.30 242.45,293.62 C240.71,294.77 240.08,294.75 238.20,293.43 C236.01,291.90 236.00,291.71 236.00,260.94 L 236.00 230.00 L 229.00 230.00 L 222.00 230.00 L 222.00 270.92 C222.00,293.42 221.73,312.55 221.39,313.42 C220.68,315.29 215.94,315.54 214.20,313.80 C213.31,312.91 213.00,302.08 213.00,271.25 L 213.00 229.91 L 206.25 230.20 L 199.50 230.50 L 199.24 275.22 C198.99,318.70 198.92,319.97 196.99,321.01 C195.07,322.03 195.00,323.15 195.00,354.04 L 195.00 386.00 L 227.50 386.00 L 260.00 386.00 L 260.00 363.42 ZM 328.00 251.15 L 328.00 231.31 L 316.75 230.66 C310.56,230.30 297.06,230.01 286.75,230.00 L 268.00 230.00 L 268.00 249.50 L 268.00 269.00 L 277.22 269.00 C285.85,269.00 286.30,268.90 284.22,267.44 C282.09,265.95 282.00,265.28 282.00,250.14 C282.00,239.23 282.37,234.03 283.20,233.20 C284.94,231.46 289.68,231.71 290.39,233.58 C290.73,234.45 291.00,242.08 291.00,250.53 C291.00,265.27 290.91,265.95 288.78,267.44 C286.72,268.89 287.54,269.01 300.03,269.09 C307.44,269.14 315.75,269.53 318.50,269.95 C321.25,270.38 324.51,270.79 325.75,270.87 L 328.00 271.00 L 328.00 251.15 ZM 121.00 233.02 L 121.00 213.05 L 123.43 211.45 C125.33,210.21 126.33,210.10 127.93,210.96 C129.92,212.03 130.00,212.87 130.00,232.54 L 130.00 253.00 L 136.98 253.00 L 143.97 253.00 L 144.23 227.78 L 144.50 202.56 L 146.94 201.34 C148.59,200.52 149.96,200.44 151.19,201.10 C152.86,202.00 153.00,203.97 153.00,227.54 L 153.00 253.00 L 160.00 253.00 L 167.00 253.00 L 167.00 194.41 L 167.00 135.81 L 198.75 136.27 C231.66,136.74 237.40,137.41 243.65,141.50 C249.64,145.43 250.53,156.75 245.28,162.23 C243.80,163.78 240.31,165.73 237.54,166.57 C231.28,168.46 211.36,169.92 191.25,169.96 L 176.00 170.00 L 176.00 189.00 L 176.00 208.00 L 183.00 208.00 L 190.00 208.00 L 190.00 194.93 C190.00,180.96 190.76,178.00 194.34,178.00 C198.54,178.00 199.00,179.60 199.00,194.20 L 199.00 208.00 L 206.00 208.00 L 213.00 208.00 L 213.00 197.57 C213.00,189.42 213.34,186.80 214.57,185.57 C216.41,183.73 217.44,183.63 220.07,185.04 C221.80,185.96 222.00,187.22 222.00,197.16 L 222.00 208.26 L 229.22 207.55 C233.19,207.16 237.15,206.45 238.02,205.99 C238.90,205.52 241.47,205.39 243.73,205.69 C252.92,206.92 280.95,200.15 291.00,194.26 C305.87,185.56 314.00,171.10 314.00,153.34 C314.00,123.59 297.07,107.59 258.61,101.02 C240.53,97.93 217.68,97.02 157.75,97.01 L 102.00 97.00 L 102.00 150.84 L 102.00 204.68 L 104.50 205.82 L 107.00 206.96 L 107.00 229.98 L 107.00 253.00 L 114.00 253.00 L 121.00 253.00 L 121.00 233.02 ZM 306.20 266.80 C304.52,265.12 304.52,234.88 306.20,233.20 C307.74,231.66 311.26,231.66 312.80,233.20 C313.63,234.03 314.00,239.20 314.00,250.00 C314.00,266.37 313.59,268.00 309.50,268.00 C308.35,268.00 306.86,267.46 306.20,266.80 Z" fill="rgb(254,254,254)"/>
</g>
</svg>